<svg xmlns="http://www.w3.org/2000/svg" xmlns:xlink="http://www.w3.org/1999/xlink" width="612" height="324" viewBox="0 0 612 324">
    <defs>
        <path id="a" d="M0 0h1366v526H0z"/>
    </defs>
    <g fill="none" fill-rule="evenodd" transform="translate(-627 -109)">
        <mask id="b" fill="#fff">
            <use xlink:href="#a"/>
        </mask>
        <g stroke="#15152c" stroke-linecap="round" stroke-linejoin="round" mask="url(#b)">
            <path d="M671.837 240.649c-1.721-5.544-6.451-9.66-12.053-10.481a14.3 14.3 0 0 0-10.769 2.762c-3.19 2.41-5.244 5.957-5.783 9.987"/>
            <path d="M668.524 245.189c.964-3.378 4.281-5.544 7.716-5.038 3.83.559 6.528 4.183 6.006 8.08M647.04 249.284c-.596-2.686-2.16-4.937-4.411-6.339-2.098-1.304-4.557-1.705-6.93-1.13-5.099 1.24-8.282 6.63-7.091 12.013.506 2.292 1.765 4.33 3.547 5.734M678.378 248.231h60.867M744.255 248.231h4.297M714.196 257.801H673.38"/>
            <g>
                <path d="M1110.302 321.232h-11.084c-.738 3.527-3.763 17.735-6.088 25.207-1.92 6.164-4.07 10.951-5.18 13.248h42.683M1114.822 298.965c-.057-.352-4.41-26.896-6.379-46.98-2.154 19.557-6.812 45.546-7.067 46.992M1107.961 110.182v19.266M1115.818 138.78v-5.063a3.26 3.26 0 0 0-3.26-3.26h-8.829a3.26 3.26 0 0 0-3.26 3.26v8.319M1095.492 142.036h24.81M1130.488 299.309h-45.182M1140.681 310.487h-65.569M1162.211 377.049h-108.625M1091.737 368.917h-30.816M1155.893 368.917h-57.429M1120.302 160.082h-24.81v-10.59h24.81v2.83"/>
                <path d="M1187.706 431.663l-31.432-53.172a1.035 1.035 0 0 1-.105-.454v-16.01a.028.028 0 0 0-.029-.028h-7.444c-.328 0-.635-.158-.826-.43-11.105-15.73-19.646-48.74-25.385-98.123l-1.272-11.696c-4.447-43.667-5.301-84.702-5.415-91.643a.028.028 0 0 0-.028-.029h-14.523a.028.028 0 0 0-.029.029c-.08 4.803-.506 25.94-2.231 52.808l-1 14.252c-2.714 35.372-8.238 83.948-19.161 114.525-.24.644-5.796 15.593-9.745 19.959a1.043 1.043 0 0 1-.773.344h-7.428a.028.028 0 0 0-.028.028v16.01c0 .158-.037.312-.105.454l-29.205 53.626"/>
                <path d="M1060.443 432.117c4.188-22.603 24.008-39.723 47.822-39.723 23.506 0 43.117 16.674 47.648 38.836M1108.508 160.082v91.903"/>
            </g>
            <g>
                <path d="M1155.74 216.183a15.302 15.302 0 0 1-5.72-12.73c.215-4.07 2.001-7.812 5.03-10.533a15.142 15.142 0 0 1 11.009-3.892 15.192 15.192 0 0 1 12.684 8.116 12.866 12.866 0 0 1 7.882-2.207 12.758 12.758 0 0 1 8.873 4.24 12.753 12.753 0 0 1 3.277 9.27M1184.219 208.974h53.432"/>
            </g>
            <g>
                <path d="M878.926 285.487V162.618M814.98 162.338h138.79M849.175 308.057v-22.724l-22.312-14.127v-83.952h-34.085l-11.364-24.916h24.895M896.219 187.254v139.227M953.766 162.342l-11.518 24.912M854.581 162.346v18.489c0 6.743 5.516 12.259 12.26 12.259 6.743 0 12.093-5.516 12.093-12.26M836.073 197.233c0 11.866 9.712 21.578 21.578 21.578 11.867 0 21.287-9.712 21.287-21.578M888.597 323.459v20.368M871.304 316.765v36.486M856.056 311.002v63.779M841.739 226.13v148.651M949.238 172.176h14.098c.664.919 1.782 1.996 3.046 1.996h19.529c1.41 0 4.981-2.102 6.265-3.386.559-.558.672-.656.28-1.34-1.013-1.762-2.912-4.95-3.407-4.95h-12.384"/>
                <path d="M973.344 164.497h3.316a3.127 3.127 0 0 0 3.078-3.686h-11.364c-1.26 0-2.377.308-3.041 1.535h-11.644M785.743 172.176h-14.098c-.664.919-1.782 1.996-3.045 1.996h-19.53c-1.409 0-4.98-2.102-6.265-3.386-.559-.558-.672-.656-.28-1.34 1.013-1.762 2.913-4.95 3.407-4.95h12.385"/>
                <path d="M761.638 164.497h-3.317a3.127 3.127 0 0 1-3.078-3.686h11.364c1.26 0 2.378.308 3.042 1.535h11.644M868.716 122.417h-3.872c-3.426 0-6.229 2.803-6.229 6.23v15.527c0 4.491 3.673 12.709 8.165 12.709 4.491 0 8.165-8.222 8.165-12.71v-15.527c0-3.426-2.803-6.229-6.23-6.229z"/>
                <path d="M878.934 162.346v-34.793c0-5.1-4.172-9.275-9.275-9.275h-5.763c-5.099 0-9.274 4.172-9.274 9.275v34.793"/>
                <path d="M862.284 135.932h3.43s.357 2.977 0 8.554h1.406M964.543 187.254h-68.324M922.735 336.865l-100.076-39.192"/>
                <g>
                    <path d="M874.835 375.802a7.827 7.827 0 0 1-.749-3.05 7.85 7.85 0 0 1 2.078-5.682 7.85 7.85 0 0 1 5.483-2.548 7.907 7.907 0 0 1 5.764 2.163 8.118 8.118 0 0 1 5.973-4.682c.499-4.706 4.443-8.46 9.226-8.663 4.828-.198 9.04 3.196 9.927 7.861.372-.069.75-.11 1.126-.125a7.994 7.994 0 0 1 5.795 2.118 8 8 0 0 1 2.6 5.597"/>
                    <path d="M899.605 366.05a4.623 4.623 0 0 1 1.782-3.99 4.606 4.606 0 0 1 3.418-.936 4.584 4.584 0 0 1 3.078 1.758M816.054 375.802h118.657"/>
                </g>
            </g>
            <g>
                <path d="M1198.592 375.214c-5.212 0-9.48 4.204-9.545 9.429a9.447 9.447 0 0 0 .814 3.96 1.439 1.439 0 0 1-.446 1.726c-3.661 2.786-5.791 7.014-5.848 11.603a14.715 14.715 0 0 0 4.208 10.526 14.737 14.737 0 0 0 10.416 4.471c3.982.045 7.695-1.446 10.526-4.208a14.716 14.716 0 0 0 4.468-10.416 14.727 14.727 0 0 0-5.557-11.745 1.442 1.442 0 0 1-.401-1.738c.591-1.251.9-2.576.915-3.94.065-5.265-4.163-9.603-9.428-9.668h-.122zM1198.374 404.119v27.998"/>
            </g>
            <g>
                <path d="M795.508 337.966c-3.459 0-6.298 2.79-6.338 6.262a6.25 6.25 0 0 0 .542 2.632.955.955 0 0 1-.295 1.146 9.777 9.777 0 0 0-3.884 7.708 9.768 9.768 0 0 0 2.794 6.99 9.78 9.78 0 0 0 6.918 2.968 9.757 9.757 0 0 0 6.99-2.794 9.78 9.78 0 0 0 2.969-6.917 9.794 9.794 0 0 0-3.69-7.8.96.96 0 0 1-.267-1.155c.393-.83.595-1.713.607-2.616.045-3.495-2.766-6.375-6.26-6.42-.03-.004-.058-.004-.086-.004zM795.366 357.163v18.59M688.458 360.691a12.326 12.326 0 0 1 12.385 3.054c1.653-4.006 5.314-6.938 9.62-7.635.696-7.44 6.904-13.405 14.445-13.721 7.627-.328 14.273 5.111 15.565 12.527a12.54 12.54 0 0 1 1.98-.243 12.485 12.485 0 0 1 9.04 3.304M804.317 351.817c10.582 2.864 22.83 8.161 37.422 16.824M699.34 375.753c37.909 0 53.21-28.395 88.736-26.617"/>
            </g>
        </g>
    </g>
</svg>
